<svg width="25" height="32" viewBox="0 0 25 32" fill="none" xmlns="http://www.w3.org/2000/svg">
<path d="M12.4595 31.9992C12.1133 31.9977 11.773 31.9081 11.4709 31.739C8.43987 29.9959 -1.27753 23.3355 0.140408 10.0797C0.50608 7.31068 1.89901 4.78019 4.04298 2.99003C6.43645 1.05538 9.42097 0 12.4986 0C15.5762 0 18.5607 1.05538 20.9541 2.99003C23.0892 4.7875 24.4801 7.31428 24.8567 10.0797C26.2747 23.3355 16.5442 29.9959 13.5392 31.726C13.2116 31.9153 12.8378 32.0099 12.4595 31.9992ZM12.1994 1.61112C7.5683 1.61112 2.32584 4.86327 1.79248 10.2488C1.33197 14.2625 2.0878 18.322 3.96196 21.901C5.83612 25.4799 8.74219 28.4134 12.3034 30.3211C12.3612 30.3597 12.4291 30.3803 12.4986 30.3803C12.568 30.3803 12.6359 30.3597 12.6937 30.3211C16.2527 28.4151 19.1566 25.4834 21.0286 21.9065C22.9006 18.3295 23.6542 14.2724 23.1916 10.2618C22.6062 4.77221 17.1686 1.50705 12.4986 1.62413H12.2124L12.1994 1.61112Z" fill="white"/>
<path d="M22.1118 15.1921C22.0413 16.9706 21.2857 18.6529 20.0031 19.8871C18.7205 21.1212 17.0102 21.8115 15.2303 21.8134C14.5876 21.8103 13.9485 21.7184 13.3311 21.5402C13.3987 19.7516 14.1605 18.0596 15.455 16.8234C16.7495 15.5872 18.4747 14.9041 20.2646 14.9189C20.8902 14.9215 21.5123 15.0135 22.1118 15.1921Z" fill="white"/>
<path d="M2.74219 15.1921C2.80952 16.9717 3.56415 18.656 4.84747 19.8908C6.13078 21.1256 7.84284 21.8148 9.62374 21.8135C10.2664 21.8104 10.9055 21.7185 11.523 21.5403C11.4557 19.7629 10.7029 18.0806 9.42239 16.8462C8.14186 15.6117 6.4331 14.921 4.65445 14.9189C4.00699 14.9143 3.36246 15.0064 2.74219 15.1921Z" fill="white"/>
<path d="M12.4595 25.7161C11.9358 25.6946 11.4309 25.5154 11.0107 25.202C10.5906 24.8887 10.2749 24.4557 10.105 23.9599C10.105 25.0916 11.1977 27.0429 12.4595 27.0429C13.7214 27.0429 14.8271 25.0916 14.8271 23.9599C14.6564 24.4577 14.3387 24.8921 13.916 25.2056C13.4933 25.5192 12.9855 25.6971 12.4595 25.7161Z" fill="white"/>
</svg>
