<svg width="20" height="18" viewBox="0 0 20 18" xmlns="http://www.w3.org/2000/svg">
<path d="M19.8159 11.3765L15.471 12.6397C15.0897 12.7499 14.734 12.9339 14.4242 13.1811L13.577 13.8586C13.2893 14.0887 12.9312 14.2141 12.562 14.2141H10.8386V12.4962H12.1892C12.3129 12.4966 12.4328 12.4535 12.5276 12.3744C16.4198 9.09203 14.7172 6.41955 13.0156 4.19549C12.5022 3.52421 11.7239 2.99729 10.884 2.58677V0.902256C10.884 0.662963 10.7884 0.43347 10.6183 0.264265C10.4482 0.0950588 10.2175 0 9.97688 0C9.73631 0 9.5056 0.0950588 9.33549 0.264265C9.16538 0.43347 9.06981 0.662963 9.06981 0.902256V1.8812C8.34831 1.65895 7.6133 1.48265 6.86926 1.35338C6.84193 1.34844 6.81375 1.35127 6.78795 1.36152C6.76216 1.37178 6.73979 1.38906 6.72341 1.41137C6.70703 1.43369 6.69731 1.46015 6.69535 1.48771C6.69339 1.51528 6.69928 1.54283 6.71234 1.56722C10.0231 7.86316 7.49877 11.4361 6.73048 12.3104C6.71432 12.3289 6.70386 12.3517 6.70033 12.376C6.6968 12.4003 6.70037 12.425 6.71059 12.4474C6.72081 12.4697 6.73727 12.4887 6.758 12.502C6.77873 12.5153 6.80286 12.5224 6.82753 12.5224H9.07979V14.215H6.46198C6.0571 14.215 5.66881 14.0551 5.38251 13.7703C5.09622 13.4855 4.93538 13.0993 4.93538 12.6965V12.4872C4.93538 12.4706 4.93207 12.4541 4.92563 12.4387C4.91919 12.4233 4.90976 12.4093 4.89787 12.3976C4.88598 12.3858 4.87187 12.3766 4.85636 12.3703C4.84085 12.364 4.82424 12.3608 4.80749 12.3609H0.127003C0.110173 12.3609 0.0935098 12.3642 0.0779832 12.3707C0.0624566 12.3771 0.048376 12.3866 0.0365599 12.3985C0.0247438 12.4105 0.0154279 12.4246 0.00915378 12.4401C0.00287968 12.4557 -0.000227473 12.4723 1.29598e-05 12.489C0.0562513 15.4565 2.08083 18 4.93448 18H13.8319C15.8275 18 16.916 16.1955 17.5509 14.8421C18.106 13.6574 19.5655 12.8644 19.9211 12.6848C19.9448 12.673 19.9647 12.6548 19.9787 12.6323C19.9926 12.6099 20 12.584 20 12.5576V11.5137C19.9999 11.4915 19.9946 11.4697 19.9846 11.4499C19.9746 11.4301 19.9601 11.4128 19.9422 11.3996C19.9244 11.3863 19.9037 11.3773 19.8818 11.3733C19.8598 11.3693 19.8373 11.3704 19.8159 11.3765Z" fill="#FFFFFF"/>
<path d="M1.37253 10.3757H5.58224C5.65157 10.3761 5.71997 10.3599 5.78169 10.3285C5.84341 10.2971 5.89665 10.2514 5.9369 10.1952C7.83359 7.51372 6.17093 4.44515 5.66478 3.63493C5.65073 3.61275 5.63125 3.59447 5.60817 3.58181C5.58509 3.56914 5.55916 3.5625 5.5328 3.5625C5.50645 3.5625 5.48052 3.56914 5.45744 3.58181C5.43436 3.59447 5.41488 3.61275 5.40083 3.63493L1.24009 10.1366C1.2252 10.1602 1.21693 10.1873 1.21613 10.2151C1.21533 10.243 1.22203 10.2705 1.23554 10.2949C1.24906 10.3193 1.26888 10.3397 1.29297 10.3539C1.31706 10.3681 1.34453 10.3756 1.37253 10.3757Z" fill="#FFFFFF"/>
</svg>
