<svg width="42" height="42" viewBox="0 0 42 42" fill="none" xmlns="http://www.w3.org/2000/svg">
<path d="M42 21C42 32.5973 32.5973 42 21 42C9.40268 42 0 32.5973 0 21C0 9.40268 9.40268 0 21 0C32.5997 0 42 9.40268 42 21Z" fill="#2081E2"/>
<path d="M10.3606 21.7056L10.4512 21.5632L15.9141 13.0172C15.9939 12.892 16.1817 12.905 16.242 13.0409C17.1547 15.0863 17.9422 17.63 17.5733 19.2136C17.4158 19.8652 16.9843 20.7477 16.4988 21.5632C16.4362 21.6819 16.3672 21.7984 16.2938 21.9106C16.2593 21.9624 16.2011 21.9926 16.1385 21.9926H10.5202C10.3692 21.9926 10.2808 21.8286 10.3606 21.7056Z" fill="white"/>
<path d="M34.7107 23.2936V24.6464C34.7107 24.724 34.6633 24.7931 34.5943 24.8233C34.1714 25.0046 32.7236 25.6691 32.1217 26.5062C30.5855 28.6443 29.4118 31.7016 26.7882 31.7016H15.8429C11.9636 31.7016 8.82007 28.5473 8.82007 24.655V24.5299C8.82007 24.4263 8.90421 24.3422 9.00781 24.3422H15.1093C15.2302 24.3422 15.3186 24.4544 15.3079 24.573C15.2647 24.97 15.338 25.3756 15.5257 25.7446C15.8882 26.4803 16.6391 26.9399 17.4503 26.9399H20.4709V24.5817H17.4848C17.3316 24.5817 17.241 24.4047 17.3295 24.2796C17.3618 24.23 17.3985 24.1782 17.4373 24.1199C17.72 23.7187 18.1234 23.0951 18.5248 22.3852C18.7988 21.9063 19.0641 21.3949 19.2777 20.8815C19.3209 20.7887 19.3554 20.6938 19.3899 20.6009C19.4482 20.437 19.5086 20.2838 19.5518 20.1306C19.5949 20.0012 19.6294 19.8652 19.664 19.7379C19.7654 19.3021 19.8085 18.8404 19.8085 18.3614C19.8085 18.1737 19.7999 17.9774 19.7826 17.7897C19.774 17.5847 19.7481 17.3797 19.7222 17.1748C19.7049 16.9935 19.6726 16.8145 19.6381 16.6268C19.5949 16.3527 19.5345 16.0809 19.4654 15.8069L19.4417 15.7033C19.3899 15.5156 19.3468 15.3365 19.2864 15.1488C19.1159 14.5598 18.9196 13.9859 18.7125 13.4487C18.637 13.2351 18.5506 13.0301 18.4643 12.8252C18.337 12.5166 18.2076 12.2361 18.089 11.9707C18.0285 11.8499 17.9767 11.7399 17.925 11.6277C17.8667 11.5004 17.8063 11.3731 17.7459 11.2523C17.7027 11.1595 17.6531 11.0732 17.6186 10.9869L17.2497 10.3051C17.1979 10.2123 17.2842 10.1023 17.3855 10.1303L19.6941 10.7561H19.7006C19.7049 10.7561 19.7071 10.7582 19.7093 10.7582L20.0135 10.8423L20.3479 10.9373L20.4709 10.9718V9.59961C20.4709 8.93722 21.0017 8.39999 21.6576 8.39999C21.9855 8.39999 22.2832 8.53374 22.4968 8.75167C22.7104 8.96961 22.8442 9.26734 22.8442 9.59961V11.6363L23.0901 11.7053C23.1096 11.7118 23.129 11.7205 23.1463 11.7334C23.2067 11.7787 23.2929 11.8456 23.403 11.9276C23.4893 11.9966 23.5821 12.0808 23.6943 12.1671C23.9165 12.3462 24.1818 12.577 24.4731 12.8424C24.5508 12.9093 24.6264 12.9783 24.6954 13.0474C25.0708 13.3969 25.4915 13.8068 25.8928 14.2599C26.005 14.3872 26.1151 14.5166 26.2273 14.6526C26.3394 14.7907 26.4581 14.9266 26.5617 15.0625C26.6976 15.2438 26.8443 15.4314 26.9716 15.6278C27.032 15.7206 27.101 15.8155 27.1593 15.9083C27.3233 16.1564 27.4678 16.4132 27.6059 16.6699C27.6642 16.7886 27.7246 16.918 27.7763 17.0453C27.9296 17.3884 28.0504 17.7379 28.128 18.0874C28.1518 18.1629 28.169 18.2449 28.1777 18.3183V18.3355C28.2035 18.4391 28.2122 18.5492 28.2208 18.6613C28.2553 19.0195 28.2381 19.3776 28.1604 19.7379C28.128 19.8911 28.0849 20.0357 28.0331 20.1889C27.9813 20.3356 27.9296 20.4888 27.8627 20.6333C27.7332 20.9332 27.58 21.2331 27.3988 21.5136C27.3405 21.6172 27.2715 21.7272 27.2024 21.8308C27.1269 21.9408 27.0493 22.0444 26.9802 22.1458C26.8853 22.2753 26.7839 22.4111 26.6803 22.532C26.5876 22.6593 26.4926 22.7866 26.389 22.8988C26.2445 23.0692 26.1064 23.231 25.9619 23.3864C25.8756 23.4878 25.7828 23.5913 25.6878 23.6841C25.5951 23.7877 25.5001 23.8804 25.4138 23.9667C25.2693 24.1113 25.1485 24.2235 25.0471 24.3163L24.8097 24.5342C24.7752 24.5644 24.7299 24.5817 24.6824 24.5817H22.8442V26.9399H25.1571C25.6749 26.9399 26.1668 26.7565 26.5638 26.4199C26.6997 26.3012 27.2931 25.7877 27.9943 25.0132C28.018 24.9873 28.0482 24.9679 28.0827 24.9592L34.4712 23.1124C34.5899 23.0778 34.7107 23.1685 34.7107 23.2936Z" fill="white"/>
</svg>
