<svg width="71" height="58" viewBox="0 0 71 58" fill="none" xmlns="http://www.w3.org/2000/svg">
<path fill-rule="evenodd" clip-rule="evenodd" d="M70.5736 6.79099C67.973 7.93861 65.183 8.71773 62.256 9.06518C65.2461 7.27531 67.5414 4.43257 68.6153 1.05287C65.8147 2.7164 62.7192 3.91666 59.4238 4.56944C56.7811 1.75829 53.0223 0 48.853 0C40.8617 0 34.3761 6.48566 34.3761 14.4769C34.3761 15.614 34.5024 16.7195 34.7551 17.7724C22.7209 17.1722 12.0553 11.4025 4.91689 2.64269C3.6745 4.78001 2.95855 7.26478 2.95855 9.918C2.95855 14.9402 5.51702 19.3727 9.4021 21.9628C7.03315 21.8891 4.80107 21.2363 2.84274 20.1519C2.84274 20.215 2.84274 20.2677 2.84274 20.3308C2.84274 27.3429 7.83333 33.1969 14.4559 34.5235C13.2451 34.8499 11.9606 35.0289 10.6445 35.0289C9.70743 35.0289 8.80196 34.9341 7.91755 34.7656C9.76007 40.5143 15.1086 44.7047 21.4364 44.8205C16.4774 48.7056 10.2444 51.0219 3.4534 51.0219C2.28472 51.0219 1.1371 50.9482 0 50.8219C6.40143 54.928 14.0137 57.3286 22.1944 57.3286C48.8214 57.3286 63.3826 35.271 63.3826 16.1404C63.3826 15.5087 63.372 14.8875 63.3404 14.2663C66.1726 12.2238 68.6258 9.67584 70.5631 6.76993L70.5736 6.79099Z" fill="white"/>
</svg>
